:FULLY-SPECIFIED
:FORCE-ALL-JOINTS-BE-3DOF
:DEGREES
714
root -11.6329 13.9389 -38.284 151.852 -61.7449 -146.44
lfemur -65.9932 24.9832 -1.30033
ltibia 76.1243 -0 0
lfoot -8.69818 -7.96161 -4.2933e-07
ltoes -2.87961 0 0
rfemur 9.29365 -10.56 11.6296
rtibia 40.0237 -0 0
rfoot -25.1885 -26.6826 -4.76066e-06
rtoes -29.2088 0 0
lowerback 12.2291 1.43674 8.8682
upperback -1.73049 3.48541 5.83358
thorax -8.61532 1.287 0.627995
lowerneck -3.93126 4.90752 0.897824
upperneck 3.3439 6.45717 0.892117
head 1.69945 3.25076 0.298092
lclavicle -2.65564e-14 7.93151e-14 0
lhumerus 62.8681 14.1686 106.928
lradius 11.6558 -0 0
lwrist -76.6741 0 0
lhand -33.8982 41.9549 5.92421e-05
lfingers 7.12502 -0 0
lthumb -7.08125 71.8165 5.80939e-05
rclavicle -2.65564e-14 7.93151e-14 0
rhumerus -75.3343 19.238 -95.4169
rradius 114.545 -0 0
rwrist -66.4875 0 0
rhand -8.12904 -40.277 0.00204686
rfingers 7.12502 -0 0
rthumb 17.7846 -69.4832 0.00212282
715
root -11.718 13.9096 -38.3053 151.849 -61.7512 -146.424
lfemur -66.0161 24.9842 -1.30683
ltibia 76.1435 0 0
lfoot -8.71061 -7.96159 0
ltoes -2.88111 0 0
rfemur 9.3032 -10.5604 11.633
rtibia 40.0015 0 0
rfoot -25.1857 -26.6837 0
rtoes -29.248 0 0
lowerback 12.2268 1.43666 8.87247
upperback -1.73131 3.4857 5.83519
thorax -8.61478 1.28691 0.627392
lowerneck -3.92437 4.90705 0.903776
upperneck 3.33837 6.45654 0.886993
head 1.69679 3.25039 0.29516
lclavicle -2.02512e-15 -1.09332e-14 0
lhumerus 62.8865 14.1686 106.961
lradius 11.6491 0 0
lwrist -76.7008 0 0
lhand -33.9026 41.9464 0
lfingers 7.12502 0 0
lthumb -7.08551 71.8078 0
rclavicle -2.02512e-15 -1.09332e-14 0
rhumerus -75.335 19.2364 -95.4169
rradius 114.536 0 0
rwrist -66.4644 0 0
rhand -8.09128 -40.2427 0
rfingers 7.12502 0 0
rthumb 17.821 -69.4462 0
716
root -11.7297 13.9055 -38.3086 151.858 -61.7609 -146.419
lfemur -66.0451 25.0016 -1.32012
ltibia 76.179 -0 0
lfoot -8.73265 -7.96285 8.34431e-06
ltoes -2.91835 0 0
rfemur 9.31922 -10.562 11.6345
rtibia 39.9851 -0 0
rfoot -25.1717 -26.7141 -0.00012815
rtoes -29.301 0 0
lowerback 12.211 1.43494 8.8754
upperback -1.73159 3.48166 5.83304
thorax -8.60587 1.28514 0.624551
lowerneck -3.91911 4.90661 0.911631
upperneck 3.34517 6.45568 0.882452
head 1.69849 3.24997 0.292431
lclavicle -2.02512e-15 -1.09332e-14 0
lhumerus 62.872 14.1731 106.881
lradius 11.6632 -0 0
lwrist -76.6967 0 0
lhand -33.8698 41.7481 -0.00195837
lfingers 7.12502 -0 0
lthumb -7.05387 71.6105 -0.0018812
rclavicle -2.02512e-15 -1.09332e-14 0
rhumerus -75.3378 19.2289 -95.4333
rradius 114.492 -0 0
rwrist -66.3327 0 0
rhand -7.90429 -40.0503 0.0108508
rfingers 7.12502 -0 0
rthumb 18.0006 -69.2338 0.0115072
717
root -11.7405 13.9016 -38.3123 151.869 -61.7733 -146.413
lfemur -66.0825 25.0239 -1.33726
ltibia 76.2248 -0 0
lfoot -8.76103 -7.96447 1.83738e-05
ltoes -2.96629 0 0
rfemur 9.33985 -10.5642 11.6365
rtibia 39.9639 -0 0
rfoot -25.1537 -26.7532 -0.000282182
rtoes -29.3692 0 0
lowerback 12.1908 1.43273 8.87916
upperback -1.73195 3.47646 5.83027
thorax -8.5944 1.28285 0.620894
lowerneck -3.91235 4.90604 0.921743
upperneck 3.35392 6.45457 0.876605
head 1.70068 3.24943 0.288917
lclavicle -2.02512e-15 -1.09332e-14 0
lhumerus 62.8532 14.1788 106.777
lradius 11.6813 -0 0
lwrist -76.6913 0 0
lhand -33.8276 41.4928 -0.00431244
lfingers 7.12502 -0 0
lthumb -7.01313 71.3564 -0.00414251
rclavicle -2.02512e-15 -1.09332e-14 0
rhumerus -75.3413 19.2192 -95.4544
rradius 114.434 -0 0
rwrist -66.1631 0 0
rhand -7.66352 -39.8025 0.0238948
rfingers 7.12502 -0 0
rthumb 18.2318 -68.9602 0.0253405
718
root -11.7503 13.8978 -38.3165 151.882 -61.7882 -146.406
lfemur -66.1273 25.0506 -1.35778
ltibia 76.2795 -0 0
lfoot -8.79497 -7.96641 2.93196e-05
ltoes -3.02365 0 0
rfemur 9.36453 -10.5667 11.6388
rtibia 39.9385 -0 0
rfoot -25.1321 -26.8 -0.000450285
rtoes -29.4507 0 0
lowerback 12.1665 1.43009 8.88367
upperback -1.73238 3.47024 5.82696
thorax -8.58067 1.28012 0.616518
lowerneck -3.90425 4.90536 0.933841
upperneck 3.36439 6.45324 0.869611
head 1.70331 3.24879 0.284714
lclavicle -2.02512e-15 -1.09332e-14 0
lhumerus 62.8308 14.1856 106.653
lradius 11.7029 -0 0
lwrist -76.6849 0 0
lhand -33.7771 41.1873 -0.00688178
lfingers 7.12502 -0 0
lthumb -6.96437 71.0525 -0.0066106
rclavicle -2.02512e-15 -1.09332e-14 0
rhumerus -75.3456 19.2076 -95.4797
rradius 114.366 -0 0
rwrist -65.9601 0 0
rhand -7.37539 -39.506 0.0381327
rfingers 7.12502 -0 0
rthumb 18.5086 -68.6329 0.04044
719
root -11.7593 13.8943 -38.321 151.898 -61.8051 -146.397
lfemur -66.1784 25.0811 -1.38124
ltibia 76.342 -0 0
lfoot -8.83374 -7.96862 4.04135e-05
ltoes -3.08914 0 0
rfemur 9.39271 -10.5696 11.6415
rtibia 39.9096 -0 0
rfoot -25.1074 -26.8535 -0.000620665
rtoes -29.5439 0 0
lowerback 12.1388 1.42708 8.88882
upperback -1.73287 3.46314 5.82318
thorax -8.565 1.27701 0.61152
lowerneck -3.895 4.90458 0.947654
upperneck 3.37635 6.45173 0.861624
head 1.7063 3.24806 0.279914
lclavicle -2.02512e-15 -1.09332e-14 0
lhumerus 62.8052 14.1933 106.512
lradius 11.7276 -0 0
lwrist -76.6777 0 0
lhand -33.7194 40.8385 -0.00948615
lfingers 7.12502 -0 0
lthumb -6.90868 70.7054 -0.00911234
rclavicle -2.02512e-15 -1.09332e-14 0
rhumerus -75.3504 19.1944 -95.5086
rradius 114.288 -0 0
rwrist -65.7284 0 0
rhand -7.04632 -39.1674 0.0525657
rfingers 7.12502 -0 0
rthumb 18.8247 -68.259 0.0557467
720
root -11.7674 13.891 -38.3258 151.915 -61.8239 -146.388
lfemur -66.2349 25.1147 -1.40721
ltibia 76.411 -0 0
lfoot -8.87655 -7.97106 5.09279e-05
ltoes -3.16148 0 0
rfemur 9.42383 -10.5728 11.6444
rtibia 39.8777 -0 0
rfoot -25.0802 -26.9126 -0.000782142
rtoes -29.6468 0 0
lowerback 12.1082 1.42375 8.89452
upperback -1.73341 3.4553 5.819
thorax -8.54769 1.27356 0.605999
lowerneck -3.88479 4.90372 0.962912
upperneck 3.38955 6.45006 0.852801
head 1.70961 3.24725 0.274612
lclavicle -2.02512e-15 -1.09332e-14 0
lhumerus 62.7769 14.2018 106.356
lradius 11.7549 -0 0
lwrist -76.6696 0 0
lhand -33.6557 40.4533 -0.0119547
lfingers 7.12502 -0 0
lthumb -6.84716 70.3221 -0.0114836
rclavicle -2.02512e-15 -1.09332e-14 0
rhumerus -75.3557 19.1798 -95.5404
rradius 114.202 -0 0
rwrist -65.4725 0 0
rhand -6.68274 -38.7933 0.0662468
rfingers 7.12502 -0 0
rthumb 19.1739 -67.846 0.0702561
721
root -11.7747 13.8879 -38.3308 151.933 -61.8441 -146.378
lfemur -66.2958 25.151 -1.43521
ltibia 76.4853 -0 0
lfoot -8.92266 -7.97369 6.02086e-05
ltoes -3.23939 0 0
rfemur 9.45735 -10.5762 11.6476
rtibia 39.8433 -0 0
rfoot -25.0509 -26.9761 -0.000924675
rtoes -29.7576 0 0
lowerback 12.0752 1.42017 8.90065
upperback -1.73399 3.44685 5.81451
thorax -8.52905 1.26986 0.600052
lowerneck -3.8738 4.90278 0.979343
upperneck 3.40378 6.44827 0.843299
head 1.71317 3.24637 0.268903
lclavicle -2.02512e-15 -1.09332e-14 0
lhumerus 62.7464 14.2108 106.187
lradius 11.7843 -0 0
lwrist -76.6609 0 0
lhand -33.587 40.0384 -0.0141338
lfingers 7.12502 -0 0
lthumb -6.78088 69.9092 -0.0135768
rclavicle -2.02512e-15 -1.09332e-14 0
rhumerus -75.3615 19.1641 -95.5747
rradius 114.109 -0 0
rwrist -65.1969 0 0
rhand -6.2911 -38.3903 0.0783247
rfingers 7.12502 -0 0
rthumb 19.5502 -67.4011 0.0830654
